<svg version="1.1" id="Layer_1" xmlns="http://www.w3.org/2000/svg" xmlns:xlink="http://www.w3.org/1999/xlink" x="0px" y="0px"
	 width="100%" viewBox="0 0 1024 1024" enable-background="new 0 0 1024 1024" xml:space="preserve">
<path fill="#000000" opacity="1.000000" stroke="none" 
	d="
M222.649658,489.999878 
	C222.651520,469.167877 222.499588,448.833862 222.770264,428.505432 
	C222.833359,423.767365 221.105759,421.148285 217.102432,419.098999 
	C209.994263,415.460388 203.143188,411.317688 196.020355,407.710083 
	C191.330521,405.334747 188.957611,401.837616 188.954117,396.656982 
	C188.936447,370.492340 188.928040,344.327728 188.911163,318.163086 
	C188.907074,311.830688 192.913086,308.320862 197.741989,305.231079 
	C216.116364,293.474091 235.173828,282.862640 253.856674,271.624115 
	C258.131592,269.052582 262.385284,266.429688 266.503326,263.617523 
	C271.730255,260.048035 276.591919,260.621552 281.710846,263.960693 
	C289.513062,269.050171 297.552246,273.775452 305.376831,278.831818 
	C307.970215,280.507690 309.838654,280.369629 312.519745,278.698975 
	C329.469055,268.137665 346.540741,257.770874 363.639954,247.452499 
	C383.576721,235.421814 403.585480,223.510468 423.556671,211.536774 
	C426.735992,209.630569 427.849487,207.060226 427.375580,203.158997 
	C425.764893,189.899323 426.770203,176.557526 426.848175,163.253220 
	C426.866547,160.113480 428.766235,157.434357 431.778412,155.614517 
	C453.429626,142.533676 475.326569,129.821350 496.498230,116.000504 
	C507.873077,108.575012 517.323120,107.421234 529.234070,115.385414 
	C549.386597,128.860260 570.586304,140.773849 591.406555,153.242310 
	C597.518494,156.902557 600.757935,161.820114 600.390808,169.169281 
	C599.743530,182.126419 601.314819,195.135529 599.531250,208.081085 
	C599.170898,210.696686 601.289795,211.884644 603.164917,212.968155 
	C616.273010,220.542465 629.272644,228.317856 642.559509,235.566147 
	C666.669678,248.718857 689.469727,264.054932 713.315613,277.642944 
	C716.617432,279.524384 719.126953,280.361450 722.711670,277.822693 
	C729.763123,272.828796 737.444458,268.727417 744.525879,263.771881 
	C750.099915,259.871216 754.732483,259.603241 760.847290,263.314697 
	C783.601990,277.126007 806.675354,290.416840 829.748413,303.695709 
	C835.306580,306.894501 837.600891,311.174133 837.531555,317.513550 
	C837.241638,344.004486 837.181763,370.498108 837.088318,396.990906 
	C837.069519,402.305786 834.162476,405.594391 829.894470,408.107330 
	C822.442322,412.495056 815.055237,416.995636 807.547852,421.286011 
	C805.224609,422.613708 804.315796,424.266388 804.318726,426.904144 
	C804.368164,471.567780 804.376099,516.231567 804.301270,560.895142 
	C804.296570,563.684387 805.622498,565.004333 807.756226,566.352295 
	C815.761963,571.409790 823.660400,576.637207 831.596436,581.805054 
	C835.297119,584.214905 837.344482,587.289124 837.534546,592.040466 
	C838.553955,617.530273 837.772339,643.020203 837.806335,668.508240 
	C837.812622,673.214905 835.708801,676.857239 831.411865,679.591003 
	C807.249817,694.963379 782.560303,709.423645 757.273376,722.849365 
	C753.110535,725.059570 748.323364,723.904114 744.391174,721.942688 
	C736.075867,717.794678 727.919373,713.258423 720.371216,707.791382 
	C718.081909,706.133240 716.445618,705.650330 713.746033,707.179626 
	C677.124695,727.923950 641.041870,749.617371 603.982483,769.585327 
	C600.176331,771.636108 598.686951,773.838501 598.848389,778.484253 
	C599.316956,791.965637 598.898926,805.475952 598.960815,818.974365 
	C598.979675,823.091980 597.207153,825.967651 593.827148,828.031677 
	C570.407227,842.332642 546.918152,856.522095 523.604797,870.994812 
	C517.336670,874.886047 511.516144,874.891846 505.403900,871.230713 
	C482.285522,857.383057 459.201965,843.476807 436.031952,829.716064 
	C429.431793,825.796265 426.035706,820.788391 426.491852,812.632568 
	C427.123688,801.335388 426.570221,789.975403 426.703430,778.644348 
	C426.738586,775.653259 425.837646,774.032837 423.092102,772.405762 
	C393.326477,754.765991 363.695770,736.898560 334.016479,719.112915 
	C328.024811,715.522461 321.889984,712.161377 316.005341,708.405945 
	C313.044891,706.516724 310.639465,706.797913 307.763947,708.455627 
	C298.400085,713.853882 289.343445,719.787292 279.609619,724.548218 
	C275.725342,726.448059 272.007263,726.719910 268.177094,724.558960 
	C243.542755,710.660828 218.897964,696.783325 195.457657,680.893616 
	C190.498352,677.531799 188.429947,673.270142 188.512787,667.026917 
	C188.837814,642.533203 188.730438,618.031433 188.522430,593.534851 
	C188.478546,588.366760 190.139999,584.559143 194.273132,581.662109 
	C202.040680,576.217407 209.819565,570.759033 218.259094,566.414246 
	C221.560715,564.714539 222.734787,562.628723 222.714218,558.992615 
	C222.585022,536.162354 222.649460,513.330933 222.649658,489.999878 
M676.659912,480.500092 
	C676.659424,477.168610 676.658508,473.837128 676.658447,470.505646 
	C676.657349,428.349670 676.683594,386.193665 676.638855,344.037750 
	C676.625488,331.481476 670.414062,325.367615 657.820190,325.437408 
	C642.162415,325.524200 626.505188,325.881714 610.848022,325.862427 
	C527.874207,325.760254 444.900513,325.573303 361.926788,325.424744 
	C350.169861,325.403687 344.399811,331.092957 344.356995,342.779694 
	C344.313660,354.609863 344.338470,366.440338 344.338837,378.270660 
	C344.341644,467.248077 344.339142,556.225525 344.356659,645.202942 
	C344.359314,658.693909 349.344818,663.665894 362.691010,663.666809 
	C418.676788,663.670715 474.662598,663.676025 530.648376,663.680298 
	C531.981384,663.680420 533.317322,663.614868 534.646667,663.682861 
	C537.108459,663.808594 538.236023,662.949646 538.206665,660.231140 
	C538.052002,645.903748 538.848999,631.512695 537.737915,617.266785 
	C536.931702,606.930298 535.623474,595.922302 523.449097,590.954834 
	C517.503052,588.528625 515.916321,582.935486 516.511597,576.777649 
	C516.883179,572.933289 517.930908,569.255615 519.554932,565.775757 
	C520.985718,562.710022 521.011475,559.705994 519.871704,556.583069 
	C518.959229,554.082825 517.787109,551.605774 517.355530,549.014282 
	C515.666931,538.875244 515.763062,535.258911 524.063599,530.781250 
	C531.968201,526.517151 536.311523,520.620850 537.811951,511.952576 
	C538.543579,507.725983 541.512817,505.418701 546.110718,505.679504 
	C548.435791,505.811371 550.775696,505.656036 553.107361,505.703094 
	C558.638306,505.814667 563.144653,504.016418 567.656799,500.463959 
	C576.628113,493.400787 584.796021,492.952362 594.428223,500.365814 
	C599.206299,504.043213 603.976440,505.905731 609.963867,505.768646 
	C621.523926,505.504059 623.239868,506.666351 625.819275,517.707642 
	C627.119141,523.271912 629.780701,527.337769 634.930542,529.268616 
	C643.748901,532.575012 646.609192,538.810913 645.422119,547.727539 
	C645.067993,550.387573 644.950378,553.072510 643.696960,555.455078 
	C641.853699,558.958923 642.003479,562.459595 643.137390,566.082214 
	C644.131775,569.259155 645.217285,572.421021 645.968994,575.657715 
	C647.385132,581.755554 645.453186,587.905151 640.184143,590.290039 
	C632.061584,593.966553 627.950867,600.014465 626.425659,608.447266 
	C626.048950,610.530090 625.137085,612.609924 624.059692,614.450134 
	C622.476624,617.154358 621.957520,619.937195 621.985291,623.028381 
	C622.090149,634.690918 622.198486,646.358093 621.965088,658.016724 
	C621.879272,662.304016 623.105957,663.941833 627.592224,663.827637 
	C638.748596,663.543518 649.916504,663.743530 661.079041,663.657104 
	C671.691101,663.574951 676.649780,658.544739 676.651672,647.957886 
	C676.661682,592.471985 676.658630,536.986023 676.659912,480.500092 
M512.090210,300.071014 
	C506.743530,298.111298 501.934967,295.079712 497.072662,292.225830 
	C475.561340,279.599884 454.159424,266.787659 432.679535,254.107819 
	C429.160706,252.030609 427.499908,249.068390 427.469208,245.096252 
	C427.435181,240.694534 427.461456,236.292358 427.461456,230.854507 
	C393.915955,250.992477 361.487762,270.459747 327.930695,290.604645 
	C335.981415,295.709412 342.932739,300.108398 349.874176,304.522919 
	C352.482147,306.181519 355.276978,306.773346 358.395447,306.771637 
	C461.006775,306.715698 563.618103,306.721710 666.229492,306.701050 
	C667.883789,306.700714 669.841431,307.017914 671.143555,306.280029 
	C680.166260,301.167389 689.052673,295.814087 698.325256,290.335724 
	C665.603577,270.038483 633.106934,251.224915 600.251282,232.188095 
	C599.001038,236.581100 599.434937,240.408218 599.357544,244.187149 
	C599.255615,249.162231 597.558167,252.755585 592.860413,255.525406 
	C569.521362,269.286285 546.368164,283.364227 523.235352,297.471161 
	C519.957275,299.470184 516.742981,300.747162 512.090210,300.071014 
M385.349152,729.085571 
	C398.685425,737.018799 412.021698,744.951965 425.758698,753.123535 
	C427.157745,748.776733 426.810028,745.246887 426.565643,741.853027 
	C426.191254,736.653320 428.619995,733.136658 432.657806,730.671997 
	C457.091827,715.757263 481.572937,700.919067 506.099701,686.157349 
	C510.146118,683.722046 514.105164,683.413757 518.672119,686.195435 
	C542.815979,700.901001 567.109558,715.364075 591.485474,729.682617 
	C596.880005,732.851318 598.980896,737.321106 599.369141,743.162109 
	C599.527832,745.550964 598.571045,748.132690 600.720520,750.933960 
	C633.361511,732.897095 665.379395,713.854797 698.375122,694.317261 
	C691.712585,690.646667 685.962097,687.723206 680.472168,684.372803 
	C676.443176,681.914001 672.281799,681.225464 667.655762,681.292542 
	C654.664307,681.481201 641.666382,681.493469 628.675476,681.289001 
	C624.417725,681.221985 622.093262,681.798523 621.561890,686.933350 
	C620.836914,693.938782 615.854675,695.985962 609.727112,692.352234 
	C602.146179,687.856628 594.593872,683.286682 587.283020,678.371277 
	C582.967224,675.469727 579.586060,675.530212 575.154663,678.486328 
	C567.149353,683.826477 559.143616,689.336487 550.038086,692.775452 
	C543.927795,695.083313 538.852173,692.818787 538.361633,686.921631 
	C537.932373,681.760437 535.511658,681.281494 531.260864,681.289062 
	C478.118439,681.383850 424.974091,681.553711 371.834473,681.149414 
	C359.543640,681.055969 348.019348,681.700500 338.156067,689.980286 
	C335.845337,691.920044 332.186951,692.107727 330.532288,695.748230 
	C348.709778,706.795959 366.723389,717.744141 385.349152,729.085571 
M787.649963,473.500061 
	C787.649963,460.595764 787.649963,447.691498 787.649963,434.752441 
	C783.931702,434.480927 781.973022,436.186279 779.944885,437.484161 
	C773.638245,441.520111 767.282349,445.503143 761.209717,449.873718 
	C755.776245,453.784210 750.576172,453.943207 745.001770,450.432220 
	C734.726318,443.960297 724.421326,437.534790 714.087891,431.155792 
	C707.818909,427.285828 701.473511,423.539398 694.499390,419.338043 
	C694.499390,469.362640 694.499390,518.251770 694.499390,567.664795 
	C696.796631,566.423584 698.705750,565.459900 700.549866,564.384827 
	C714.501770,556.251404 728.580750,548.323303 742.328918,539.858215 
	C749.937073,535.173706 756.476746,534.443176 764.279236,539.951050 
	C771.346008,544.939575 779.379700,548.639526 787.649536,554.193787 
	C787.649536,526.716980 787.649536,500.608551 787.649963,473.500061 
M239.348114,529.499939 
	C239.348114,537.212769 239.348114,544.925659 239.348114,553.290588 
	C246.752106,548.997314 253.225250,545.276917 259.665466,541.500427 
	C266.653992,537.402466 273.717163,534.375732 281.583466,539.368408 
	C288.452484,543.728149 295.304596,548.115417 302.212891,552.412231 
	C309.641327,557.032654 317.126434,561.562012 325.278229,566.554626 
	C325.278229,519.152710 325.278229,472.689606 325.278229,426.052673 
	C324.436676,426.205414 323.898041,426.165985 323.517059,426.392090 
	C310.079956,434.367920 296.598114,442.271118 283.261383,450.411896 
	C277.588165,453.874878 272.352997,453.812225 267.246735,449.692261 
	C264.272705,447.292725 261.247192,444.916992 258.030396,442.867096 
	C252.260345,439.190186 246.328629,435.766968 239.348618,431.566193 
	C239.348618,464.957214 239.348618,496.728546 239.348114,529.499939 
M575.539185,602.811584 
	C582.581787,604.238403 589.734924,603.527771 595.986633,600.664062 
	C616.204163,591.402527 624.945007,574.001953 619.310059,550.909546 
	C614.711609,532.064758 596.680847,519.269470 578.392395,521.427612 
	C557.072571,523.943604 544.377930,537.655457 541.588745,557.556641 
	C538.717712,578.042480 552.981934,599.503052 575.539185,602.811584 
M725.605042,608.820129 
	C732.948303,613.396179 740.505615,617.669556 747.556213,622.659180 
	C751.938293,625.760254 755.364807,625.531494 759.707214,622.784302 
	C775.173035,613.000061 790.828247,603.515442 806.382690,593.870483 
	C807.720459,593.040955 809.475952,592.552368 810.074768,590.285889 
	C809.657166,589.983154 809.135376,589.563660 808.574829,589.204773 
	C791.336792,578.168701 774.151550,567.050415 756.516602,556.645203 
	C754.125488,555.234375 752.502625,556.139648 750.619385,557.303528 
	C734.199890,567.451172 717.761719,577.568726 701.352295,587.732605 
	C699.981140,588.581909 698.401062,589.313293 697.613770,591.671997 
	C706.680847,597.211853 715.843140,602.809937 725.605042,608.820129 
M569.542358,738.963562 
	C570.220947,737.198120 568.553589,737.055176 567.712585,736.566895 
	C550.865051,726.784180 533.937927,717.137207 517.153076,707.248474 
	C513.856506,705.306274 511.201111,705.333984 507.907959,707.089539 
	C495.556702,713.674011 483.625275,720.969238 471.615326,728.133179 
	C466.251923,731.332458 460.950409,734.635498 455.540436,737.940552 
	C457.149323,740.266846 459.022491,741.059692 460.716827,742.056458 
	C474.208649,749.993835 488.196869,757.205688 501.059967,766.054321 
	C510.613373,772.626099 518.610840,773.956665 527.189026,765.522766 
	C527.882935,764.840576 528.878723,764.467773 529.727173,763.939758 
	C542.869995,755.761047 556.011658,747.580444 569.542358,738.963562 
M730.631714,294.200684 
	C723.097107,298.769928 715.542664,303.307129 708.048157,307.941406 
	C706.860840,308.675598 704.992065,309.097290 705.101685,310.965179 
	C705.229370,313.140991 704.134521,313.122894 702.408325,313.430389 
	C700.745728,313.726471 698.134644,313.507935 697.701904,315.897858 
	C697.290283,318.170685 699.621033,318.836487 701.086182,319.671814 
	C716.825989,328.645233 732.645508,337.478912 748.374634,346.470886 
	C751.267212,348.124512 753.652344,348.151276 756.688354,346.605133 
	C774.053406,337.761719 790.539124,327.406219 807.290222,317.508087 
	C808.630127,316.716339 810.282104,316.035217 810.688293,313.946869 
	C809.503967,313.077972 808.384766,312.075745 807.108948,311.348358 
	C790.638916,301.958038 774.101135,292.685242 757.702759,283.171936 
	C754.825867,281.502960 752.515991,281.635590 749.869385,283.163666 
	C743.677673,286.738708 737.453430,290.257385 730.631714,294.200684 
M279.531647,620.978088 
	C295.434998,611.148804 311.338318,601.319519 327.633087,591.248291 
	C326.418671,590.160889 325.993805,589.659485 325.463989,589.323547 
	C309.597839,579.263977 293.642792,569.341370 277.900757,559.091492 
	C273.888702,556.479187 270.744690,556.250977 266.613190,558.810791 
	C251.349426,568.268066 235.874924,577.384644 220.524109,586.702576 
	C219.050293,587.597168 217.153671,588.271973 216.746902,590.343384 
	C217.607101,591.959167 219.141785,592.709900 220.539597,593.565857 
	C235.851181,602.941833 251.288773,612.118408 266.441559,621.743591 
	C271.075684,624.687195 274.856323,625.008240 279.531647,620.978088 
M535.457581,183.930878 
	C546.764526,176.768005 558.071472,169.605148 569.871948,162.129654 
	C567.761414,160.615540 566.491211,159.543045 565.077759,158.715012 
	C549.565369,149.627457 533.970947,140.677765 518.549438,131.439209 
	C515.220154,129.444794 512.712952,129.570450 509.484955,131.497345 
	C497.338776,138.747696 485.030762,145.726318 472.812714,152.857040 
	C467.407532,156.011627 462.072449,159.286392 456.904205,162.387421 
	C457.294739,164.372025 458.456635,164.875229 459.402100,165.440720 
	C476.251221,175.518051 493.141937,185.525894 509.978058,195.624756 
	C512.717285,197.267868 515.020813,196.528107 517.412170,195.049805 
	C523.216797,191.461472 529.037170,187.898682 535.457581,183.930878 
M290.865814,339.325806 
	C303.228058,331.418823 316.394653,324.772278 328.943420,315.933533 
	C311.176819,304.541382 294.003540,294.050842 276.508270,284.079163 
	C273.799896,282.535492 271.622162,283.035187 269.110291,284.513580 
	C259.207336,290.342072 249.183441,295.964844 239.264206,301.766144 
	C232.001434,306.013824 224.832016,310.421173 217.323975,314.935944 
	C218.393280,315.905792 218.820892,316.438202 219.369690,316.770386 
	C236.172440,326.939911 252.998947,337.070251 269.786469,347.264740 
	C272.182953,348.720032 274.367737,348.810547 276.786774,347.373657 
	C281.224518,344.737762 285.736450,342.226776 290.865814,339.325806 
M445.300537,188.630280 
	C445.307404,203.779465 445.452820,218.930695 445.228577,234.076462 
	C445.168854,238.109222 446.497284,240.432770 449.966583,242.424652 
	C465.112305,251.120483 480.082672,260.121399 495.203430,268.861542 
	C497.636047,270.267639 499.901581,272.617462 503.376678,271.986084 
	C503.527710,271.006683 503.759399,270.200439 503.760620,269.393829 
	C503.787262,251.581329 503.732727,233.768433 503.847626,215.956604 
	C503.867554,212.872147 502.084473,211.539398 499.855225,210.250198 
	C483.581848,200.838989 467.326538,191.396423 451.032257,182.021545 
	C449.408875,181.087509 447.752716,179.712418 445.304565,180.750977 
	C445.304565,183.058212 445.304565,185.371613 445.300537,188.630280 
M557.769287,192.348465 
	C547.722351,198.221527 537.706299,204.148392 527.609802,209.934906 
	C524.574890,211.674271 523.110291,213.817734 523.145264,217.509552 
	C523.306274,234.487534 523.185242,251.468079 523.241028,268.447449 
	C523.246094,269.966461 522.587219,271.787811 524.600769,273.214294 
	C541.934021,262.841034 559.312317,252.371811 576.778687,242.051575 
	C579.921753,240.194443 580.806396,237.809845 580.859741,234.296539 
	C581.104736,218.158157 580.400879,202.004272 581.597351,185.878067 
	C581.762451,183.653198 581.993713,181.315216 580.962952,178.674973 
	C573.229492,183.254547 565.824768,187.639404 557.769287,192.348465 
M505.107513,808.137146 
	C504.994995,803.643188 504.651489,799.139526 504.840057,794.658203 
	C505.002899,790.787537 503.417603,788.502869 500.087769,786.759888 
	C483.563232,778.110352 467.887726,767.986023 451.712128,758.727661 
	C449.901489,757.691284 448.184265,756.131470 445.318359,757.389343 
	C445.318359,758.894653 445.318634,760.526733 445.318359,762.158875 
	C445.315918,777.146912 445.548584,792.140686 445.179260,807.119690 
	C445.055206,812.151062 446.709381,815.050659 450.982025,817.450928 
	C466.075226,825.930115 481.002350,834.704468 496.023804,843.312134 
	C498.560272,844.765747 501.251678,845.948975 504.292786,847.467407 
	C505.719147,834.227539 506.322021,821.673706 505.107513,808.137146 
M792.578125,409.037292 
	C799.581665,404.876984 806.536072,400.630676 813.608643,396.591309 
	C817.332092,394.464722 818.827087,391.627472 818.779602,387.254486 
	C818.593506,370.123108 818.744324,352.988220 818.725098,335.854645 
	C818.723755,334.632263 819.309692,333.164764 817.718872,332.155426 
	C817.164124,332.340576 816.486267,332.439850 815.944946,332.765839 
	C799.004395,342.966888 782.097229,353.223633 765.126526,363.374054 
	C762.550903,364.914612 762.175354,367.028076 762.259705,369.689026 
	C762.712219,383.980255 763.122131,398.267456 762.526550,412.574951 
	C762.366638,416.415436 761.609375,420.453369 763.384521,425.000397 
	C773.111206,419.697205 782.533691,414.559845 792.578125,409.037292 
M537.355591,839.811096 
	C547.355530,833.846924 556.979858,827.087891 567.458252,822.136353 
	C578.528015,816.905334 582.033020,809.474792 581.002563,797.489990 
	C579.812805,783.652710 580.725891,769.634644 580.725891,755.098511 
	C579.569153,755.616760 578.981873,755.819031 578.454712,756.124817 
	C560.192627,766.719666 542.080383,777.560425 524.336975,789.010193 
	C522.457458,790.222961 522.391907,791.786316 522.617188,793.752563 
	C524.020142,805.996826 523.526428,818.300537 523.600525,830.584106 
	C523.632935,835.955811 522.704407,841.345825 523.505066,847.708862 
	C528.435547,844.892639 532.574829,842.528381 537.355591,839.811096 
M264.682648,384.500916 
	C264.684814,379.676910 264.474731,374.840332 264.760223,370.033142 
	C264.967163,366.549042 263.595947,364.616394 260.668427,362.884216 
	C246.223526,354.337250 231.932922,345.529633 217.497055,336.967102 
	C215.079956,335.533447 212.885971,333.244476 209.283707,333.304199 
	C209.283707,352.895752 209.297729,372.169525 209.266586,391.443237 
	C209.262527,393.948425 211.060974,394.760864 212.807587,395.759369 
	C222.912827,401.536041 232.981094,407.377808 243.108276,413.115601 
	C249.713974,416.858215 256.398438,420.461823 264.683258,425.029480 
	C264.683258,410.939117 264.683258,398.219849 264.682648,384.500916 
M762.181946,657.541199 
	C762.181946,670.389465 762.181946,683.237732 762.181946,696.109314 
	C764.140930,696.210876 765.507507,695.135803 766.916687,694.350952 
	C782.175110,685.852295 797.295410,677.097412 812.700806,668.875854 
	C817.542908,666.291687 818.869385,663.172974 818.852478,657.879761 
	C818.809021,644.263367 817.829590,630.610779 819.617615,617.012634 
	C819.988953,614.188293 819.671509,611.273376 819.671509,607.740051 
	C802.659302,617.636169 786.690430,627.188599 770.444702,636.244202 
	C764.094177,639.784058 759.411499,643.397522 762.081787,651.589600 
	C762.572998,653.096619 762.169800,654.895264 762.181946,657.541199 
M255.852417,636.703430 
	C240.031082,627.024475 224.209763,617.345459 208.436447,607.695862 
	C206.914642,609.801331 207.346725,611.347107 207.344055,612.795776 
	C207.316116,627.961487 207.430481,643.128235 207.266113,658.292175 
	C207.227493,661.855408 208.255615,664.164429 211.382080,666.021362 
	C227.137695,675.379028 242.788895,684.912476 258.498077,694.348633 
	C259.574036,694.994934 260.725769,695.986938 262.179077,694.917908 
	C263.009827,693.204041 262.633270,691.340637 262.637604,689.538269 
	C262.670807,675.705872 262.395233,661.866028 262.782898,648.044434 
	C262.933502,642.674316 261.555969,639.036865 255.852417,636.703430 
M723.128967,352.433960 
	C713.713867,347.722900 705.241089,341.160950 694.838623,337.368774 
	C694.603760,339.018646 694.351135,339.971710 694.349670,340.925140 
	C694.321777,358.415771 694.144653,375.907654 695.060059,393.387878 
	C695.189819,395.865723 696.280334,397.299591 698.295227,398.545380 
	C709.629944,405.553375 720.845886,412.755402 732.239258,419.665436 
	C736.002075,421.947540 739.619385,424.720245 744.198181,425.683472 
	C744.395569,424.981812 744.637268,424.522522 744.637756,424.062958 
	C744.658691,405.397858 744.605652,386.732452 744.715820,368.067963 
	C744.732544,365.233582 743.315247,363.862335 741.155640,362.657196 
	C735.337402,359.410431 729.553101,356.102966 723.128967,352.433960 
M693.524048,656.613831 
	C693.062195,658.549255 692.990356,660.701294 692.060120,662.376587 
	C689.901367,666.264343 691.397583,668.127075 694.874084,670.096680 
	C706.009888,676.405640 716.971375,683.022644 727.991333,689.535706 
	C732.752808,692.349792 737.492432,695.200745 742.316223,698.079224 
	C743.776794,694.947998 743.620850,692.276123 743.694153,689.625488 
	C744.085266,675.485535 742.922058,661.372620 742.954285,647.251343 
	C742.965698,642.249939 741.516968,639.332336 737.186218,636.936218 
	C724.820557,630.094299 712.668152,622.867859 700.392883,615.860840 
	C698.745728,614.920654 697.166504,613.457153 694.312317,614.153870 
	C694.312317,616.014832 694.352295,617.960876 694.305725,619.904785 
	C694.019165,631.861694 694.953430,643.835388 693.524048,656.613831 
M325.244598,617.301025 
	C324.444427,616.670410 323.662384,617.004883 322.942596,617.417297 
	C309.954132,624.856873 297.007812,632.371155 283.961334,639.707275 
	C281.417969,641.137451 281.234406,643.129089 281.242828,645.551880 
	C281.301971,662.526550 281.302795,679.501404 281.365326,696.476013 
	C281.369232,697.534973 280.844910,698.841431 282.489136,699.774109 
	C299.236877,689.934448 316.109344,680.021545 333.372192,669.879272 
	C326.147034,660.635193 325.342590,650.177551 325.613983,639.396179 
	C325.793884,632.247620 325.579132,625.089172 325.244598,617.301025 
M312.751282,348.322845 
	C303.878632,353.237152 295.048370,358.230499 286.109100,363.020447 
	C283.203064,364.577545 281.982117,366.677185 282.383636,369.866669 
	C284.177979,384.121277 282.782990,398.443665 283.314697,412.722656 
	C283.473633,416.990234 281.425385,421.137573 282.642822,425.453918 
	C283.137360,425.418610 283.511993,425.499268 283.762238,425.358612 
	C297.095459,417.862762 310.394745,410.305939 323.763611,402.874359 
	C326.186279,401.527649 326.703796,399.694122 326.693085,397.148804 
	C326.621552,380.181213 326.678955,363.213135 326.640503,346.245331 
	C326.637299,344.836151 327.180634,343.241974 325.691467,341.845337 
	C321.152100,342.889191 317.607819,346.121887 312.751282,348.322845 
M604.670227,623.912170 
	C604.252441,618.845642 603.291382,618.249695 599.075012,620.783264 
	C597.093750,621.973694 595.324341,623.524658 593.494141,624.957214 
	C586.125244,630.725098 577.481873,630.876282 570.083130,625.261902 
	C567.685852,623.442749 565.237793,621.755432 562.434692,620.617065 
	C557.181763,618.483704 556.287109,619.031372 556.281189,624.617371 
	C556.268188,636.931641 556.285278,649.246033 556.332886,661.560181 
	C556.337036,662.633057 555.855347,663.930908 557.742065,665.041931 
	C562.145691,662.800598 567.023193,660.680908 571.523071,657.941040 
	C577.938416,654.035034 583.949036,654.118042 590.213562,658.181030 
	C594.602844,661.027954 599.241211,663.490906 604.670959,666.650574 
	C604.670959,651.985413 604.670959,638.402649 604.670227,623.912170 
z"/>
<path fill="#000000" opacity="1.000000" stroke="none" 
	d="
M466.999939,440.305237 
	C443.667633,440.304565 420.835358,440.313538 398.003052,440.296143 
	C391.766357,440.291412 388.344025,437.563080 387.906860,432.361115 
	C387.510864,427.649323 391.088318,423.466095 396.532898,422.500458 
	C398.648743,422.125244 400.829041,421.960907 402.980133,421.959595 
	C476.310028,421.914734 549.639954,421.898804 622.969849,421.886414 
	C630.179077,421.885193 633.133789,424.406860 633.147339,430.489624 
	C633.160156,436.245605 629.728394,439.068207 622.918030,439.333954 
	C571.121826,441.355347 519.304688,439.814972 466.999939,440.305237 
z"/>
<path fill="#000000" opacity="1.000000" stroke="none" 
	d="
M481.781006,374.117310 
	C505.386108,374.122467 528.522156,373.962036 551.654724,374.176880 
	C576.304749,374.405823 600.951660,374.784058 625.603577,374.432251 
	C630.088806,374.368225 633.310974,377.569580 633.776611,382.206360 
	C634.194580,386.368561 631.520508,390.189636 627.388855,391.072052 
	C625.944824,391.380463 624.408752,391.322052 622.914673,391.322388 
	C547.445862,391.339844 471.977081,391.335938 396.508301,391.383881 
	C393.138092,391.386017 390.120575,391.003448 388.533600,387.584290 
	C386.904602,384.074646 387.519348,380.701691 389.777893,377.718994 
	C391.906738,374.907532 395.192383,374.667297 398.360840,374.642303 
	C409.022430,374.558105 419.685181,374.634888 430.346954,374.564117 
	C447.334991,374.451355 464.322632,374.269470 481.781006,374.117310 
z"/>
<path fill="#000000" opacity="1.000000" stroke="none" 
	d="
M522.947266,473.714447 
	C523.906799,483.863922 520.883850,487.185760 511.107147,487.189606 
	C473.463501,487.204315 435.819885,487.214752 398.176239,487.189575 
	C390.367126,487.184357 387.553131,484.314423 387.713287,477.197205 
	C387.801605,473.272247 389.869141,471.046631 393.245392,469.764801 
	C395.602295,468.869934 398.100647,468.739777 400.621918,468.741760 
	C438.098999,468.771393 475.576080,468.784637 513.053162,468.762787 
	C517.063477,468.760468 520.746521,469.215210 522.947266,473.714447 
z"/>
<path fill="#000000" opacity="1.000000" stroke="none" 
	d="
M388.118042,588.620972 
	C390.151550,584.146912 393.252991,582.548889 397.837555,582.587524 
	C417.668152,582.754822 437.500946,582.641174 457.332886,582.672668 
	C463.397888,582.682312 466.343750,585.591614 466.340759,591.364990 
	C466.337830,597.113586 463.903625,599.381104 457.426056,599.392639 
	C437.594116,599.427917 417.762024,599.438049 397.930176,599.383667 
	C390.409454,599.363098 387.673096,596.412048 388.118042,588.620972 
z"/>
</svg>